<?xml version="1.0" encoding="utf-8"?>
<!-- Generator: Adobe Illustrator 27.6.1, SVG Export Plug-In . SVG Version: 6.00 Build 0)  -->
<svg version="1.1" id="圖層_1" xmlns="http://www.w3.org/2000/svg" xmlns:xlink="http://www.w3.org/1999/xlink" x="0px" y="0px"
	 viewBox="0 0 14.4 24.8" style="enable-background:new 0 0 14.4 24.8;" xml:space="preserve">
<style type="text/css">
	.st0{fill:#1A1A1A;}
</style>
<path class="st0" d="M9.8,11.4H8.2V6.1h4.2c0.6,0,1-0.4,1-1s-0.4-1-1-1H8.2V1c0-0.6-0.4-1-1-1s-1,0.4-1,1v3.1H4.6
	C2.1,4.1,0,6.2,0,8.8s2.1,4.6,4.6,4.6h1.6v5.3H1c-0.6,0-1,0.4-1,1s0.4,1,1,1h5.2v3.1c0,0.6,0.4,1,1,1s1-0.4,1-1v-3.1h1.6
	c2.6,0,4.6-2.1,4.6-4.6S12.4,11.4,9.8,11.4z M4.6,11.4C3.2,11.4,2,10.2,2,8.8s1.2-2.6,2.6-2.6h1.6v5.3H4.6z M9.8,18.7H8.2v-5.3h1.6
	c1.4,0,2.6,1.2,2.6,2.6S11.3,18.7,9.8,18.7z"/>
</svg>
