<svg xmlns="http://www.w3.org/2000/svg" width="32" height="14.829" viewBox="0 0 32 14.829">
  <g id="icon-more" transform="translate(-1590 -1219.002)">
    <path id="Path_513" data-name="Path 513" d="M.585,0A.59.59,0,0,1,1,.171L7.829,7a.585.585,0,0,1,0,.827L1,14.657a.585.585,0,1,1-.827-.827L6.587,7.415.171,1A.585.585,0,0,1,.585,0" transform="translate(1590 1219.002)" fill="#959595"/>
    <path id="Path_513-2" data-name="Path 513" d="M.585,0A.59.59,0,0,1,1,.171L7.829,7a.585.585,0,0,1,0,.827L1,14.657a.585.585,0,1,1-.827-.827L6.587,7.415.171,1A.585.585,0,0,1,.585,0" transform="translate(1602 1219.002)" fill="#959595"/>
    <path id="Path_513-3" data-name="Path 513" d="M.585,0A.59.59,0,0,1,1,.171L7.829,7a.585.585,0,0,1,0,.827L1,14.657a.585.585,0,1,1-.827-.827L6.587,7.415.171,1A.585.585,0,0,1,.585,0" transform="translate(1614 1219.002)" fill="#959595"/>
  </g>
</svg>
