<svg xmlns="http://www.w3.org/2000/svg" width="40" height="40" viewBox="0 0 40 40">
  <g id="icon-line" transform="translate(-1707.254 -601.05)">
    <circle id="Ellipse_27" data-name="Ellipse 27" cx="20" cy="20" r="20" transform="translate(1707.254 601.05)" fill="#68b82b"/>
    <g id="Group_426" data-name="Group 426" transform="translate(1713.559 608.956)">
      <g id="FULL_COLOR_ICON" data-name="FULL COLOR ICON" transform="translate(0 0)">
        <g id="TYPE_A" data-name="TYPE A">
          <g id="Group_425" data-name="Group 425">
            <path id="Path_381" data-name="Path 381" d="M1755.794,638.791c0-6.1-6.114-11.061-13.63-11.061s-13.629,4.962-13.629,11.061c0,5.468,4.849,10.047,11.4,10.912.444.1,1.048.293,1.2.672a2.8,2.8,0,0,1,.044,1.233s-.16.962-.194,1.167c-.059.345-.274,1.348,1.18.735s7.849-4.622,10.709-7.913h0a9.839,9.839,0,0,0,2.922-6.805" transform="translate(-1728.535 -627.73)" fill="#fff"/>
            <g id="Group_424" data-name="Group 424" transform="translate(4.471 8.113)">
              <path id="Path_382" data-name="Path 382" d="M1762.287,655.113h-.956a.266.266,0,0,0-.266.265v5.939a.265.265,0,0,0,.266.265h.956a.265.265,0,0,0,.265-.265v-5.939a.265.265,0,0,0-.265-.265" transform="translate(-1755.898 -655.113)" fill="#68b82b"/>
              <path id="Path_383" data-name="Path 383" d="M1774.606,655.113h-.956a.265.265,0,0,0-.266.265v3.528l-2.722-3.675a.27.27,0,0,0-.021-.027v0l-.016-.016-.005,0-.014-.012-.007-.005-.014-.009-.008,0-.014-.008-.009,0-.015-.007-.009,0-.016-.005-.009,0-.015,0h-.011l-.014,0h-.979a.266.266,0,0,0-.266.265v5.939a.265.265,0,0,0,.266.265h.956a.265.265,0,0,0,.266-.265V657.79l2.725,3.68a.257.257,0,0,0,.067.065l0,0,.016.01.008,0,.013.006.013.006.008,0,.018.006h0a.254.254,0,0,0,.068.009h.956a.265.265,0,0,0,.265-.265v-5.939a.265.265,0,0,0-.265-.265" transform="translate(-1761.637 -655.113)" fill="#68b82b"/>
              <path id="Path_384" data-name="Path 384" d="M1747.709,660.095h-2.6v-4.716a.265.265,0,0,0-.265-.265h-.956a.265.265,0,0,0-.266.265v5.938h0a.264.264,0,0,0,.074.183l0,0,0,0a.263.263,0,0,0,.183.074h3.82a.265.265,0,0,0,.265-.265v-.956a.265.265,0,0,0-.265-.266" transform="translate(-1743.625 -655.113)" fill="#68b82b"/>
              <path id="Path_385" data-name="Path 385" d="M1795.515,656.6a.265.265,0,0,0,.265-.266v-.956a.265.265,0,0,0-.265-.266h-3.82a.264.264,0,0,0-.184.075l0,0,0,0a.264.264,0,0,0-.073.183h0v5.938h0a.265.265,0,0,0,.074.183l0,0,0,0a.262.262,0,0,0,.183.074h3.82a.265.265,0,0,0,.265-.265v-.956a.265.265,0,0,0-.265-.266h-2.6v-1h2.6a.265.265,0,0,0,.265-.265v-.956a.265.265,0,0,0-.265-.266h-2.6v-1Z" transform="translate(-1777.266 -655.113)" fill="#68b82b"/>
            </g>
          </g>
        </g>
      </g>
    </g>
  </g>
</svg>
