<svg xmlns="http://www.w3.org/2000/svg" xmlns:xlink="http://www.w3.org/1999/xlink" width="40" height="40" viewBox="0 0 40 40">
  <defs>
    <clipPath id="clip-path">
      <rect id="Rectangle_691" data-name="Rectangle 691" width="26.666" height="20" transform="translate(8 10)" fill="none"/>
    </clipPath>
  </defs>
  <g id="signup" transform="translate(-1793 -44)">
    <circle id="Ellipse_13" data-name="Ellipse 13" cx="20" cy="20" r="20" transform="translate(1793 44)" fill="none"/>
    <g id="Group_1441" data-name="Group 1441" transform="translate(1793 44)">
      <g id="Group_1440" data-name="Group 1440" clip-path="url(#clip-path)">
        <path id="Path_538" data-name="Path 538" d="M26.333,30A1.633,1.633,0,0,0,28,28.4v-.069c0-1.666-1.667-6.666-10-6.666s-10,5-10,6.666A1.632,1.632,0,0,0,9.6,30H26.333ZM23,15a5,5,0,1,1-5-5,5,5,0,0,1,5,5m7.5,0a.834.834,0,0,1,.833.833v3.334A.834.834,0,0,1,30.5,20H27.167a.834.834,0,1,1,0-1.667h2.5v-2.5A.834.834,0,0,1,30.5,15" fill="#1a1a1a" fill-rule="evenodd"/>
        <path id="Path_539" data-name="Path 539" d="M29.666,19.166a.834.834,0,0,1,.833-.833h3.336a.834.834,0,1,1,0,1.667h-2.5v2.5a.834.834,0,0,1-1.667,0Z" fill="#101010" fill-rule="evenodd"/>
      </g>
    </g>
  </g>
</svg>
