<?xml version="1.0" encoding="utf-8"?>
<!-- Generator: Adobe Illustrator 27.6.1, SVG Export Plug-In . SVG Version: 6.00 Build 0)  -->
<svg version="1.1" id="icon-more-arrow-2" xmlns="http://www.w3.org/2000/svg" xmlns:xlink="http://www.w3.org/1999/xlink" x="0px"
	 y="0px" viewBox="0 0 22 22.2" enable-background="new 0 0 22 22.2" xml:space="preserve">
<path fill="#FFFFFF" d="M10.9,0c0.2,0,0.5,0.1,0.6,0.3l10.2,10.2c0.3,0.3,0.3,0.9,0,1.2L11.5,22c-0.3,0.3-0.9,0.3-1.2,0
	c-0.3-0.3-0.3-0.9,0-1.2l9.6-9.6l-9.6-9.6c-0.3-0.3-0.3-0.9,0-1.2C10.4,0.1,10.6,0,10.9,0 M0.9,0c0.2,0,0.5,0.1,0.6,0.3l10.2,10.2
	c0.3,0.3,0.3,0.9,0,1.2L1.5,22c-0.3,0.3-0.9,0.3-1.2,0c-0.3-0.3-0.3-0.9,0-1.2l9.6-9.6L0.3,1.5c-0.3-0.3-0.3-0.9,0-1.2
	C0.4,0.1,0.6,0,0.9,0"/>
</svg>
