<svg id="login" xmlns="http://www.w3.org/2000/svg" xmlns:xlink="http://www.w3.org/1999/xlink" width="40" height="40" viewBox="0 0 40 40">
  <defs>
    <clipPath id="clip-path">
      <rect id="Rectangle_705" data-name="Rectangle 705" width="40" height="40" fill="none"/>
    </clipPath>
  </defs>
  <g id="Group_1520" data-name="Group 1520" clip-path="url(#clip-path)">
    <path id="Path_553" data-name="Path 553" d="M13.64,30.42H26.882a3.039,3.039,0,0,0,3.039-3.039V12.619A3.04,3.04,0,0,0,26.882,9.58H13.64a.217.217,0,0,0-.217.217V30.2a.217.217,0,0,0,.217.217m8.229-14.49,3.456,3.456a.869.869,0,0,1,0,1.228l-3.456,3.457a.886.886,0,0,1-1.215.046.869.869,0,0,1-.059-1.227l.029-.03,1.991-1.991H16.921a.887.887,0,0,1-.892-.827.869.869,0,0,1,.826-.909h5.76l-1.991-1.991a.869.869,0,0,1,0-1.228l.03-.029a.884.884,0,0,1,1.215.046" fill="#1a1a1a"/>
    <line id="Line_121" data-name="Line 121" y2="20.84" transform="translate(10.079 9.58)" fill="none" stroke="#141414" stroke-linecap="round" stroke-miterlimit="10" stroke-width="2.389"/>
  </g>
</svg>
