<svg xmlns="http://www.w3.org/2000/svg" width="40" height="40" viewBox="0 0 40 40">
  <g id="icon-facebook" transform="translate(-1757.36 -207.946)">
    <path id="Path_379" data-name="Path 379" d="M1797.36,227.946a20,20,0,1,0-23.125,19.757V233.727h-5.078v-5.781h5.078V223.54c0-5.012,2.986-7.781,7.554-7.781a30.766,30.766,0,0,1,4.477.391v4.922h-2.522c-2.484,0-3.259,1.542-3.259,3.123v3.752h5.547l-.887,5.781h-4.66V247.7A20,20,0,0,0,1797.36,227.946Z" transform="translate(0)" fill="#4676ed"/>
    <path id="Path_380" data-name="Path 380" d="M1813.163,252.282l.887-5.781H1808.5v-3.752c0-1.582.775-3.123,3.259-3.123h2.522V234.7a30.768,30.768,0,0,0-4.477-.391c-4.568,0-7.554,2.769-7.554,7.781V246.5h-5.078v5.781h5.078v13.976a20.218,20.218,0,0,0,6.25,0V252.282Z" transform="translate(-28.018 -18.555)" fill="#fff"/>
  </g>
</svg>
