<svg id="icon-recommend" xmlns="http://www.w3.org/2000/svg" width="80" height="46.067" viewBox="0 0 80 46.067">
  <rect id="Rectangle_677" data-name="Rectangle 677" width="59.825" height="4.961" transform="translate(10.088 41.106)" fill="#00cbde"/>
  <path id="Path_527" data-name="Path 527" d="M80,18.571a3.882,3.882,0,1,0-6.151,3.147c-.933,1.564-3.553,4.95-8.122,3.451s-4.85-8.813-4.755-11.986A3.882,3.882,0,1,0,58.559,13c-.743,2.715-3.015,8.785-8.488,8.785-5.352,0-7.8-9.6-8.671-14.229a3.882,3.882,0,1,0-2.525,0c-.87,4.625-3.319,14.229-8.671,14.229-5.551,0-7.809-6.243-8.518-8.9a3.881,3.881,0,1,0-2.381.356c.09,3.2-.224,10.442-4.757,11.929-4.717,1.548-7.357-2.11-8.207-3.6a3.881,3.881,0,1,0-2.6.877L9.7,38.341H70.579l5.963-15.912A3.887,3.887,0,0,0,80,18.571" fill="#f9c80e"/>
</svg>
