<svg xmlns="http://www.w3.org/2000/svg" width="530.48" height="58.4" viewBox="0 0 530.48 58.4">
  <path id="Path_10567" data-name="Path 10567" d="M70.88-12.56A90.544,90.544,0,0,1,44.8-8.48C22.56-8.48,14-16.64,14-28c0-11.44,8.56-19.6,30.8-19.6a90.379,90.379,0,0,1,26.08,4.16l2.4-9.28A87.281,87.281,0,0,0,44.8-57.2C15.68-57.2,3.52-44.64,3.52-28S15.68,1.2,44.8,1.2A87.281,87.281,0,0,0,73.28-3.28ZM83.52-28c0,16.64,12.88,29.2,37.6,29.2s37.6-12.56,37.6-29.2-12.88-29.2-37.6-29.2S83.52-44.64,83.52-28ZM94-28c0-11.44,8.72-19.6,27.12-19.6s27.04,8.16,27.04,19.6c0,11.36-8.64,19.52-27.04,19.52S94-16.64,94-28Zm133.84,6.4.16,8.64L181.68-56H171.36V0h10.32V-34.56l-.24-8.4L227.84,0h10.32V-56H227.84ZM314-46.4V-56H249.2v9.6h27.2V0h10.32V-46.4ZM354.72-56H342.88L309.84,0h11.92l7.12-12h39.84l7.2,12h11.92Zm-5.92,9.04L361.76-24l1.44,2.4H334.4l1.52-2.4Zm109.36,34.4a90.544,90.544,0,0,1-26.08,4.08c-22.24,0-30.8-8.16-30.8-19.52,0-11.44,8.56-19.6,30.8-19.6a90.379,90.379,0,0,1,26.08,4.16l2.4-9.28a87.281,87.281,0,0,0-28.48-4.48c-29.12,0-41.28,12.56-41.28,29.2S402.96,1.2,432.08,1.2a87.281,87.281,0,0,0,28.48-4.48ZM534-46.4V-56H469.2v9.6h27.2V0h10.32V-46.4Z" transform="translate(-3.52 57.2)" fill="#1a1a1a"/>
</svg>
