<svg xmlns="http://www.w3.org/2000/svg" width="405.2" height="58.4" viewBox="0 0 405.2 58.4">
  <path id="Path_10565" data-name="Path 10565" d="M61.6-21.6l.16,8.64L15.44-56H5.12V0H15.44V-34.56l-.24-8.4L61.6,0H71.92V-56H61.6ZM84.56-28c0,16.64,12.88,29.2,37.6,29.2s37.6-12.56,37.6-29.2-12.88-29.2-37.6-29.2S84.56-44.64,84.56-28Zm10.48,0c0-11.44,8.72-19.6,27.12-19.6S149.2-39.44,149.2-28c0,11.36-8.64,19.52-27.04,19.52S95.04-16.64,95.04-28ZM232.4-46.4V-56H167.6v9.6h27.2V0h10.32V-46.4ZM243.44,0h10.32V-56H243.44Zm90.32-12.56a90.544,90.544,0,0,1-26.08,4.08c-22.24,0-30.8-8.16-30.8-19.52,0-11.44,8.56-19.6,30.8-19.6a90.379,90.379,0,0,1,26.08,4.16l2.4-9.28a87.281,87.281,0,0,0-28.48-4.48c-29.12,0-41.28,12.56-41.28,29.2S278.56,1.2,307.68,1.2a87.282,87.282,0,0,0,28.48-4.48ZM410.32,0V-9.68h-52V-24h45.6v-9.6h-45.6V-46.4h50.4V-56H348V0Z" transform="translate(-5.12 57.2)" fill="#1a1a1a"/>
</svg>
