<svg xmlns="http://www.w3.org/2000/svg" width="933.44" height="58.4" viewBox="0 0 933.44 58.4">
  <path id="Path_10568" data-name="Path 10568" d="M-432.56,1.2c14.08,0,33.12-2.96,33.12-18.16,0-13.44-14.88-14.96-30.64-15.6-11.92-.48-23.36-.96-23.36-7.44,0-7.2,14.88-7.6,18.88-7.6a130.355,130.355,0,0,1,28.64,3.2l2.16-9.44a142.1,142.1,0,0,0-29.12-3.36c-13.6,0-31.04,2.72-31.04,17.76,0,14.96,17.28,15.92,33.36,16.8,13.6.72,20.64,1.12,20.64,6.16,0,7.44-15.52,8.08-20.8,8.08a105.621,105.621,0,0,1-32.4-5.04l-2.8,9.2A105.787,105.787,0,0,0-432.56,1.2ZM-321.2,0V-56h-10.32v22.4h-44.96V-56H-386.8V0h10.32V-24h44.96V0Zm12.64-28c0,16.64,12.88,29.2,37.6,29.2s37.6-12.56,37.6-29.2-12.88-29.2-37.6-29.2S-308.56-44.64-308.56-28Zm10.48,0c0-11.44,8.72-19.6,27.12-19.6s27.04,8.16,27.04,19.6c0,11.36-8.64,19.52-27.04,19.52S-298.08-16.64-298.08-28ZM-210.4,0V-16.4h31.6c12.88,0,24.08-5.04,24.08-19.84S-165.92-56-178.8-56h-41.92V0Zm32.24-46.4c7.44,0,12.88,2.56,12.88,10.16,0,7.68-5.44,10.16-12.88,10.16H-210.4V-46.4ZM-132.56,0V-16.4h31.6c12.88,0,24.08-5.04,24.08-19.84S-88.08-56-100.96-56h-41.92V0Zm32.24-46.4c7.44,0,12.88,2.56,12.88,10.16,0,7.68-5.44,10.16-12.88,10.16h-32.24V-46.4ZM-65.04,0h10.32V-56H-65.04ZM16-21.6l.16,8.64L-30.16-56H-40.48V0h10.32V-34.56l-.24-8.4L16,0H26.32V-56H16Zm88.8-1.6v.32c0,8.64-10.4,14.4-27.84,14.4C58.64-8.48,49.44-16.64,49.44-28c0-11.44,8.56-19.6,30.8-19.6a90.712,90.712,0,0,1,26.08,4l2.4-9.12A92.135,92.135,0,0,0,80.24-57.2C51.12-57.2,38.96-44.64,38.96-28s12.8,29.2,38,29.2c20.88,0,38.16-6.88,38.16-27.52v-6.56H76.96v9.68ZM232.16-12.56a90.544,90.544,0,0,1-26.08,4.08c-22.24,0-30.8-8.16-30.8-19.52,0-11.44,8.56-19.6,30.8-19.6a90.379,90.379,0,0,1,26.08,4.16l2.4-9.28a87.281,87.281,0,0,0-28.48-4.48c-29.12,0-41.28,12.56-41.28,29.2S176.96,1.2,206.08,1.2a87.281,87.281,0,0,0,28.48-4.48ZM285.68-56H273.84L240.8,0h11.92l7.12-12h39.84l7.2,12H318.8Zm-5.92,9.04L292.72-24l1.44,2.4h-28.8l1.52-2.4ZM327.36,0h10.32V-20H355.2L379.68,0h16L369.76-20.32h2.08c11.76,0,21.52-4.48,21.52-17.68,0-13.44-9.6-18-21.6-18h-44.4Zm10.32-29.68V-46.4h34.4c6.24,0,10.72,2.16,10.72,8.4s-4.56,8.32-10.8,8.32ZM467.52-46.4V-56h-64.8v9.6h27.2V0h10.32V-46.4Z" transform="translate(465.92 57.2)" fill="#fff"/>
</svg>
