<svg xmlns="http://www.w3.org/2000/svg" width="1157.76" height="58.4" viewBox="0 0 1157.76 58.4">
  <path id="Path_10567" data-name="Path 10567" d="M-522.16-24v-9.6h-45.6V-46.4h50.4V-56h-60.72V0h10.32V-24Zm14.24-4c0,16.64,12.88,29.2,37.6,29.2s37.6-12.56,37.6-29.2-12.88-29.2-37.6-29.2S-507.92-44.64-507.92-28Zm10.48,0c0-11.44,8.72-19.6,27.12-19.6s27.04,8.16,27.04,19.6c0,11.36-8.64,19.52-27.04,19.52S-497.44-16.64-497.44-28Zm77.36,28h10.32V-20h17.52l24.48,20h16l-25.92-20.32h2.08c11.76,0,21.52-4.48,21.52-17.68,0-13.44-9.6-18-21.6-18h-44.4Zm10.32-29.68V-46.4h34.4c6.24,0,10.72,2.16,10.72,8.4s-4.56,8.32-10.8,8.32Zm132.48,6.48v.32c0,8.64-10.4,14.4-27.84,14.4-18.32,0-27.52-8.16-27.52-19.52,0-11.44,8.56-19.6,30.8-19.6a90.712,90.712,0,0,1,26.08,4l2.4-9.12a92.136,92.136,0,0,0-28.48-4.48c-29.12,0-41.28,12.56-41.28,29.2s12.8,29.2,38,29.2c20.88,0,38.16-6.88,38.16-27.52v-6.56h-38.16v9.68Zm22.16-4.8c0,16.64,12.88,29.2,37.6,29.2s37.6-12.56,37.6-29.2-12.88-29.2-37.6-29.2S-255.12-44.64-255.12-28Zm10.48,0c0-11.44,8.72-19.6,27.12-19.6s27.04,8.16,27.04,19.6c0,11.36-8.64,19.52-27.04,19.52S-244.64-16.64-244.64-28Zm137.36-18.4V-56h-64.8v9.6h27.2V0h10.32V-46.4ZM-48.08,0V-16.4h31.6C-3.6-16.4,7.6-21.44,7.6-36.24S-3.6-56-16.48-56H-58.4V0Zm32.24-46.4c7.44,0,12.88,2.56,12.88,10.16,0,7.68-5.44,10.16-12.88,10.16H-48.08V-46.4ZM50.72-56H38.88L5.84,0H17.76l7.12-12H64.72l7.2,12H83.84ZM44.8-46.96,57.76-24l1.44,2.4H30.4L31.92-24ZM124.16,1.2c14.08,0,33.12-2.96,33.12-18.16,0-13.44-14.88-14.96-30.64-15.6-11.92-.48-23.36-.96-23.36-7.44,0-7.2,14.88-7.6,18.88-7.6a130.355,130.355,0,0,1,28.64,3.2l2.16-9.44a142.1,142.1,0,0,0-29.12-3.36c-13.6,0-31.04,2.72-31.04,17.76,0,14.96,17.28,15.92,33.36,16.8,13.6.72,20.64,1.12,20.64,6.16,0,7.44-15.52,8.08-20.8,8.08a105.621,105.621,0,0,1-32.4-5.04l-2.8,9.2A105.787,105.787,0,0,0,124.16,1.2Zm77.52,0c14.08,0,33.12-2.96,33.12-18.16,0-13.44-14.88-14.96-30.64-15.6-11.92-.48-23.36-.96-23.36-7.44,0-7.2,14.88-7.6,18.88-7.6a130.355,130.355,0,0,1,28.64,3.2l2.16-9.44a142.1,142.1,0,0,0-29.12-3.36c-13.6,0-31.04,2.72-31.04,17.76,0,14.96,17.28,15.92,33.36,16.8,13.6.72,20.64,1.12,20.64,6.16,0,7.44-15.52,8.08-20.8,8.08a105.621,105.621,0,0,1-32.4-5.04l-2.8,9.2A105.787,105.787,0,0,0,201.68,1.2ZM315.28,0l23.84-56h-11.2L317.76-32,310-12.88,303.68-32l-8.64-24h-10.8l-8.56,24-6.32,19.12L261.6-32,251.36-56H240.24L264.08,0H275.2l8.56-24,5.92-17.68L295.6-24l8.56,24Zm29.28-28c0,16.64,12.88,29.2,37.6,29.2s37.6-12.56,37.6-29.2-12.88-29.2-37.6-29.2S344.56-44.64,344.56-28Zm10.48,0c0-11.44,8.72-19.6,27.12-19.6S409.2-39.44,409.2-28c0,11.36-8.64,19.52-27.04,19.52S355.04-16.64,355.04-28ZM432.4,0h10.32V-20h17.52L484.72,0h16L474.8-20.32h2.08c11.76,0,21.52-4.48,21.52-17.68,0-13.44-9.6-18-21.6-18H432.4Zm10.32-29.68V-46.4h34.4c6.24,0,10.72,2.16,10.72,8.4s-4.56,8.32-10.8,8.32ZM538.4,0c29.12,0,41.28-11.36,41.28-28S567.52-56,538.4-56H510.96V0Zm0-46.4c22.24,0,30.72,6.96,30.72,18.4,0,11.36-8.48,18.32-30.72,18.32H521.28V-46.4Z" transform="translate(578.08 57.2)" fill="#fff"/>
</svg>
