<svg xmlns="http://www.w3.org/2000/svg" width="547.04" height="58.4" viewBox="0 0 547.04 58.4">
  <path id="Path_10565" data-name="Path 10565" d="M15.44,0V-16.4h31.6c12.88,0,24.08-5.04,24.08-19.84S59.92-56,47.04-56H5.12V0ZM47.68-46.4c7.44,0,12.88,2.56,12.88,10.16,0,7.68-5.44,10.16-12.88,10.16H15.44V-46.4ZM82.96,0H93.28V-20H110.8L135.28,0h16L125.36-20.32h2.08c11.76,0,21.52-4.48,21.52-17.68,0-13.44-9.6-18-21.6-18H82.96ZM93.28-29.68V-46.4h34.4c6.24,0,10.72,2.16,10.72,8.4s-4.56,8.32-10.8,8.32ZM159.92-28c0,16.64,12.88,29.2,37.6,29.2s37.6-12.56,37.6-29.2-12.88-29.2-37.6-29.2S159.92-44.64,159.92-28Zm10.48,0c0-11.44,8.72-19.6,27.12-19.6s27.04,8.16,27.04,19.6c0,11.36-8.64,19.52-27.04,19.52S170.4-16.64,170.4-28ZM275.2,0c29.12,0,41.28-11.36,41.28-28S304.32-56,275.2-56H247.76V0Zm0-46.4c22.24,0,30.72,6.96,30.72,18.4,0,11.36-8.48,18.32-30.72,18.32H258.08V-46.4ZM386-22.4c0,11.2-9.52,13.92-23.28,13.92-13.84,0-23.28-2.72-23.28-13.92V-56H329.12v33.6c0,16.56,11.2,23.6,33.6,23.6s33.6-7.04,33.6-23.6V-56H386Zm90.32,9.84a90.544,90.544,0,0,1-26.08,4.08c-22.24,0-30.8-8.16-30.8-19.52,0-11.44,8.56-19.6,30.8-19.6a90.379,90.379,0,0,1,26.08,4.16l2.4-9.28a87.281,87.281,0,0,0-28.48-4.48c-29.12,0-41.28,12.56-41.28,29.2S421.12,1.2,450.24,1.2a87.282,87.282,0,0,0,28.48-4.48ZM552.16-46.4V-56h-64.8v9.6h27.2V0h10.32V-46.4Z" transform="translate(-5.12 57.2)" fill="#1a1a1a"/>
</svg>
