<svg xmlns="http://www.w3.org/2000/svg" xmlns:xlink="http://www.w3.org/1999/xlink" width="397.2" height="58.4" viewBox="0 0 397.2 58.4">
  <defs>
    <clipPath id="clip-path">
      <rect width="397.2" height="58.4" fill="none"/>
    </clipPath>
  </defs>
  <g id="Repeat_Grid_1" data-name="Repeat Grid 1" clip-path="url(#clip-path)">
    <g transform="translate(-197.52 -187.8)">
      <path id="Path_10566" data-name="Path 10566" d="M44.4-56H32.56L-.48,0H11.44l7.12-12H58.4L65.6,0H77.52Zm-5.92,9.04L51.44-24l1.44,2.4H24.08L25.6-24ZM134.64,0c14.4,0,20.16-6.32,20.16-15.52,0-8.16-4.8-12.24-11.68-14.16,4.64-2.24,7.68-5.76,7.68-12.08,0-10.48-8.08-14.24-20.4-14.24H86.08V0Zm-.96-24c7.52,0,11.44,1.68,11.44,7.04,0,4.8-2.96,7.28-10.48,7.28H96.4V-24ZM130.4-46.4c7.44,0,10.72,1.76,10.72,6.48,0,4.96-3.84,6.32-11.6,6.32H96.4V-46.4ZM165.84-28c0,16.64,12.88,29.2,37.6,29.2s37.6-12.56,37.6-29.2-12.88-29.2-37.6-29.2S165.84-44.64,165.84-28Zm10.48,0c0-11.44,8.72-19.6,27.12-19.6s27.04,8.16,27.04,19.6c0,11.36-8.64,19.52-27.04,19.52S176.32-16.64,176.32-28Zm134.24,5.6c0,11.2-9.52,13.92-23.28,13.92C273.44-8.48,264-11.2,264-22.4V-56H253.68v33.6c0,16.56,11.2,23.6,33.6,23.6s33.6-7.04,33.6-23.6V-56H310.56Zm86.16-24V-56h-64.8v9.6h27.2V0h10.32V-46.4Z" transform="translate(198 245)" fill="#1a1a1a"/>
    </g>
  </g>
</svg>
