<svg xmlns="http://www.w3.org/2000/svg" width="702.24" height="58.4" viewBox="0 0 702.24 58.4">
  <path id="image_replacement-recommend" d="M-350.32,0H-340V-20h17.52L-298,0h16l-25.92-20.32h2.08c11.76,0,21.52-4.48,21.52-17.68,0-13.44-9.6-18-21.6-18h-44.4ZM-340-29.68V-46.4h34.4c6.24,0,10.72,2.16,10.72,8.4s-4.56,8.32-10.8,8.32ZM-213.44,0V-9.68h-52V-24h45.6v-9.6h-45.6V-46.4h50.4V-56h-60.72V0Zm74.4-12.56a90.544,90.544,0,0,1-26.08,4.08c-22.24,0-30.8-8.16-30.8-19.52,0-11.44,8.56-19.6,30.8-19.6a90.379,90.379,0,0,1,26.08,4.16l2.4-9.28a87.281,87.281,0,0,0-28.48-4.48c-29.12,0-41.28,12.56-41.28,29.2s12.16,29.2,41.28,29.2a87.281,87.281,0,0,0,28.48-4.48ZM-130.4-28c0,16.64,12.88,29.2,37.6,29.2S-55.2-11.36-55.2-28-68.08-57.2-92.8-57.2-130.4-44.64-130.4-28Zm10.48,0c0-11.44,8.72-19.6,27.12-19.6S-65.76-39.44-65.76-28c0,11.36-8.64,19.52-27.04,19.52S-119.92-16.64-119.92-28ZM-3.12-10.24l27.04-32-.16,8.08V0H34.08V-56H23.76l-30,35.6-30-35.6H-46.56V0h10.32V-34.16l-.24-8.08,27.04,32Zm90.88,0,27.04-32-.16,8.08V0h10.32V-56H114.64l-30,35.6L54.64-56H44.32V0H54.64V-34.16l-.24-8.08,27.04,32ZM197.52,0V-9.68h-52V-24h45.6v-9.6h-45.6V-46.4h50.4V-56H135.2V0Zm65.12-21.6.16,8.64L216.48-56H206.16V0h10.32V-34.56l-.24-8.4L262.64,0h10.32V-56H262.64Zm48,21.6c29.12,0,41.28-11.36,41.28-28s-12.16-28-41.28-28H283.2V0Zm0-46.4c22.24,0,30.72,6.96,30.72,18.4,0,11.36-8.48,18.32-30.72,18.32H293.52V-46.4Z" transform="translate(350.32 57.2)" fill="#1a1a1a"/>
</svg>
