<svg xmlns="http://www.w3.org/2000/svg" width="371.2" height="58.4" viewBox="0 0 371.2 58.4">
  <path id="Path_10566" data-name="Path 10566" d="M-127.28,0V-9.68h-48V-56H-185.6V0Zm7.84-28c0,16.64,12.88,29.2,37.6,29.2s37.6-12.56,37.6-29.2-12.88-29.2-37.6-29.2S-119.44-44.64-119.44-28Zm10.48,0c0-11.44,8.72-19.6,27.12-19.6S-54.8-39.44-54.8-28c0,11.36-8.64,19.52-27.04,19.52S-108.96-16.64-108.96-28Zm141.6,4.8v.32c0,8.64-10.4,14.4-27.84,14.4-18.32,0-27.52-8.16-27.52-19.52,0-11.44,8.56-19.6,30.8-19.6a90.712,90.712,0,0,1,26.08,4l2.4-9.12A92.136,92.136,0,0,0,8.08-57.2C-21.04-57.2-33.2-44.64-33.2-28S-20.4,1.2,4.8,1.2c20.88,0,38.16-6.88,38.16-27.52v-6.56H4.8v9.68ZM94.24,0h10.32V-56H94.24Zm81.04-21.6.16,8.64L129.12-56H118.8V0h10.32V-34.56l-.24-8.4L175.28,0H185.6V-56H175.28Z" transform="translate(185.6 57.2)" fill="#fff"/>
</svg>
