<svg xmlns="http://www.w3.org/2000/svg" width="401.92" height="58.4" viewBox="0 0 401.92 58.4">
  <path id="Path_10565" data-name="Path 10565" d="M-168.4,1.2c14.08,0,33.12-2.96,33.12-18.16,0-13.44-14.88-14.96-30.64-15.6-11.92-.48-23.36-.96-23.36-7.44,0-7.2,14.88-7.6,18.88-7.6a130.355,130.355,0,0,1,28.64,3.2l2.16-9.44a142.1,142.1,0,0,0-29.12-3.36c-13.6,0-31.04,2.72-31.04,17.76,0,14.96,17.28,15.92,33.36,16.8,13.6.72,20.64,1.12,20.64,6.16,0,7.44-15.52,8.08-20.8,8.08a105.621,105.621,0,0,1-32.4-5.04l-2.8,9.2A105.787,105.787,0,0,0-168.4,1.2ZM-122.64,0h10.32V-56h-10.32Zm88.8-23.2v.32c0,8.64-10.4,14.4-27.84,14.4C-80-8.48-89.2-16.64-89.2-28c0-11.44,8.56-19.6,30.8-19.6a90.712,90.712,0,0,1,26.08,4l2.4-9.12A92.136,92.136,0,0,0-58.4-57.2c-29.12,0-41.28,12.56-41.28,29.2s12.8,29.2,38,29.2c20.88,0,38.16-6.88,38.16-27.52v-6.56H-61.68v9.68ZM46.4-21.6l.16,8.64L.24-56H-10.08V0H.24V-34.56L0-42.96,46.4,0H56.72V-56H46.4ZM108.8,0h10.32V-56H108.8Zm81.04-21.6.16,8.64L143.68-56H133.36V0h10.32V-34.56l-.24-8.4L189.84,0h10.32V-56H189.84Z" transform="translate(201.76 57.2)" fill="#fff"/>
</svg>
