<svg xmlns="http://www.w3.org/2000/svg" width="551.28" height="58.4" viewBox="0 0 551.28 58.4">
  <path id="Path_10568" data-name="Path 10568" d="M-231.96-56H-243.8L-276.84,0h11.92l7.12-12h39.84l7.2,12h11.92Zm-5.92,9.04L-224.92-24l1.44,2.4h-28.8l1.52-2.4Zm109.36,34.4A90.544,90.544,0,0,1-154.6-8.48c-22.24,0-30.8-8.16-30.8-19.52,0-11.44,8.56-19.6,30.8-19.6a90.379,90.379,0,0,1,26.08,4.16l2.4-9.28A87.281,87.281,0,0,0-154.6-57.2c-29.12,0-41.28,12.56-41.28,29.2S-183.72,1.2-154.6,1.2a87.281,87.281,0,0,0,28.48-4.48Zm78.4,0A90.544,90.544,0,0,1-76.2-8.48C-98.44-8.48-107-16.64-107-28c0-11.44,8.56-19.6,30.8-19.6a90.379,90.379,0,0,1,26.08,4.16l2.4-9.28A87.281,87.281,0,0,0-76.2-57.2c-29.12,0-41.28,12.56-41.28,29.2S-105.32,1.2-76.2,1.2A87.281,87.281,0,0,0-47.72-3.28ZM-37.48-28C-37.48-11.36-24.6,1.2.12,1.2S37.72-11.36,37.72-28,24.84-57.2.12-57.2-37.48-44.64-37.48-28ZM-27-28C-27-39.44-18.28-47.6.12-47.6S27.16-39.44,27.16-28C27.16-16.64,18.52-8.48.12-8.48S-27-16.64-27-28Zm134.24,5.6c0,11.2-9.52,13.92-23.28,13.92-13.84,0-23.28-2.72-23.28-13.92V-56H50.36v33.6c0,16.56,11.2,23.6,33.6,23.6s33.6-7.04,33.6-23.6V-56H107.24Zm81.04.8.16,8.64L142.12-56H131.8V0h10.32V-34.56l-.24-8.4L188.28,0H198.6V-56H188.28Zm86.16-24.8V-56h-64.8v9.6h27.2V0h10.32V-46.4Z" transform="translate(276.84 57.2)" fill="#fff"/>
</svg>
