<svg xmlns="http://www.w3.org/2000/svg" width="672.4" height="58.4" viewBox="0 0 672.4 58.4">
  <path id="Path_10566" data-name="Path 10566" d="M15.44,0V-16.4h31.6c12.88,0,24.08-5.04,24.08-19.84S59.92-56,47.04-56H5.12V0ZM47.68-46.4c7.44,0,12.88,2.56,12.88,10.16,0,7.68-5.44,10.16-12.88,10.16H15.44V-46.4ZM82.96,0H93.28V-20H110.8L135.28,0h16L125.36-20.32h2.08c11.76,0,21.52-4.48,21.52-17.68,0-13.44-9.6-18-21.6-18H82.96ZM93.28-29.68V-46.4h34.4c6.24,0,10.72,2.16,10.72,8.4s-4.56,8.32-10.8,8.32ZM159.92-28c0,16.64,12.88,29.2,37.6,29.2s37.6-12.56,37.6-29.2-12.88-29.2-37.6-29.2S159.92-44.64,159.92-28Zm10.48,0c0-11.44,8.72-19.6,27.12-19.6s27.04,8.16,27.04,19.6c0,11.36-8.64,19.52-27.04,19.52S170.4-16.64,170.4-28ZM291.2-10.24l27.04-32-.16,8.08V0H328.4V-56H318.08l-30,35.6-30-35.6H247.76V0h10.32V-34.16l-.24-8.08,27.04,32ZM341.04-28c0,16.64,12.88,29.2,37.6,29.2s37.6-12.56,37.6-29.2-12.88-29.2-37.6-29.2S341.04-44.64,341.04-28Zm10.48,0c0-11.44,8.72-19.6,27.12-19.6s27.04,8.16,27.04,19.6c0,11.36-8.64,19.52-27.04,19.52S351.52-16.64,351.52-28ZM488.88-46.4V-56h-64.8v9.6h27.2V0H461.6V-46.4ZM499.92,0h10.32V-56H499.92Zm22.96-28c0,16.64,12.88,29.2,37.6,29.2s37.6-12.56,37.6-29.2-12.88-29.2-37.6-29.2S522.88-44.64,522.88-28Zm10.48,0c0-11.44,8.72-19.6,27.12-19.6s27.04,8.16,27.04,19.6c0,11.36-8.64,19.52-27.04,19.52S533.36-16.64,533.36-28ZM667.2-21.6l.16,8.64L621.04-56H610.72V0h10.32V-34.56l-.24-8.4L667.2,0h10.32V-56H667.2Z" transform="translate(-5.12 57.2)" fill="#1a1a1a"/>
</svg>
