<svg xmlns="http://www.w3.org/2000/svg" width="186.586" height="48" viewBox="0 0 186.586 48">
  <g id="Group_1610" data-name="Group 1610" transform="translate(-40 -40)">
    <g id="Group_283" data-name="Group 283" transform="translate(94.625 45.332)">
      <path id="Path_20" data-name="Path 20" d="M1321.122,803.6h.229a.825.825,0,0,0,.627-.2,1.093,1.093,0,0,0,.179-.721v-4.476h1.063v4.333a1.47,1.47,0,0,1-.363,1.11,1.673,1.673,0,0,1-1.176.344c-.085,0-.173,0-.269-.006s-.192-.011-.29-.021Zm7.969-5.392h1.073v3.473a2.544,2.544,0,0,0,.286,1.413,1.362,1.362,0,0,0,1.927,0,2.567,2.567,0,0,0,.282-1.413v-3.473h.516v3.667a2.4,2.4,0,0,1-.508,1.671,1.965,1.965,0,0,1-1.53.559,2.333,2.333,0,0,1-.871-.166,1.844,1.844,0,0,1-.685-.446,1.608,1.608,0,0,1-.376-.63,3.4,3.4,0,0,1-.113-.988Zm10.054,4.66a1.53,1.53,0,0,0,.487.564,1.114,1.114,0,0,0,.638.2,1,1,0,0,0,1.042-1.037q0-.728-1.294-1.257l-.013,0a2.5,2.5,0,0,1-.988-.642,1.387,1.387,0,0,1-.292-.9,1.635,1.635,0,0,1,.5-1.23,1.805,1.805,0,0,1,1.3-.48,2.007,2.007,0,0,1,1.044.267,1.611,1.611,0,0,1,.664.758l-.38.254a1.305,1.305,0,0,0-.429-.623,1.085,1.085,0,0,0-.677-.216.926.926,0,0,0-.689.269.952.952,0,0,0-.267.7.838.838,0,0,0,.22.585,2.457,2.457,0,0,0,.826.5,3.451,3.451,0,0,1,1.26.783,1.474,1.474,0,0,1,.3.96,1.675,1.675,0,0,1-.54,1.279,1.919,1.919,0,0,1-1.364.5,2.182,2.182,0,0,1-1.029-.229,2.069,2.069,0,0,1-.751-.706Zm9.6,1.093v-5.324h-1.515v-.429h4.092v.429H1349.8v5.324Zm-33.892-2.416h-45.038v.493h45.038Zm86.924,0h-45.04v.493h45.04ZM1282.913,792h4.459a.57.57,0,0,0,.4-.162l3.778-3.682a.569.569,0,0,0,.167-.331l2.024-15.095a.79.79,0,0,1,.781-.683h6.239a.568.568,0,0,0,.568-.568v-2.339a.568.568,0,0,0-.568-.568H1295.2a.788.788,0,0,1-.781-.894l.749-5.588a.569.569,0,0,0-.135-.45.563.563,0,0,0-.427-.194h-2.357a.574.574,0,0,0-.564.493l-.8,5.949a.789.789,0,0,1-.781.683h-16.7a.573.573,0,0,0-.564.491l-1,7.385a.569.569,0,0,0,.105.412l3.413,4.668a.573.573,0,0,0,.461.233h.736a.79.79,0,0,1,.783.884l-.7,5.8a.779.779,0,0,1-.231.468l-2.023,1.97h-.749l.183-1.629a.567.567,0,0,0-.564-.632h-2.352a.567.567,0,0,0-.564.5l-.508,4.5a.564.564,0,0,0,.139.442.574.574,0,0,0,.425.19h5.2a.568.568,0,0,0,.4-.16l3.788-3.689a.571.571,0,0,0,.167-.34l.918-7.62a.787.787,0,0,1,.781-.7h1.217a.56.56,0,0,0,.4-.167l4.158-4.175a.575.575,0,0,0,.16-.323l.593-4.367a.792.792,0,0,1,.783-.681h.478a.788.788,0,0,1,.781.892l-1.776,13.236a.794.794,0,0,1-.23.461l-1.808,1.761a.793.793,0,0,1-.551.224h-2.659a.571.571,0,0,0-.566.5l-.267,2.243a.569.569,0,0,0,.565.636Zm1.383-16.6a.8.8,0,0,1-.224.448v0l-2.2,2.207a.788.788,0,0,1-.559.231h-3.631a.794.794,0,0,1-.636-.322l-1.428-1.953a.794.794,0,0,1-.145-.572l.369-2.711a.792.792,0,0,1,.781-.681h7.223a.784.784,0,0,1,.593.269.792.792,0,0,1,.188.625Zm44.934-13.957h-20.421a.709.709,0,0,0-.708.708v10.333a.708.708,0,0,0,.2.487l4.5,4.732a.714.714,0,0,0,.513.22h11.477a.7.7,0,0,0,.519-.228l4.442-4.818a.709.709,0,0,0,.188-.48V762.145A.709.709,0,0,0,1329.231,761.438Zm-4.429,11.673-.952,1.033a.925.925,0,0,1-.681.3H1314.9a.93.93,0,0,1-.672-.288l-.984-1.037a.636.636,0,0,1,.461-1.074h10.634a.636.636,0,0,1,.467,1.067Zm1.661-5.468a.928.928,0,0,1-.928.926H1312.5a.928.928,0,0,1-.928-.926v-1.8a.928.928,0,0,1,.928-.928h13.031a.928.928,0,0,1,.928.928Zm-43.442-6.013a.538.538,0,0,0-.4-.182h-2.406a.54.54,0,0,0-.538.48l-.13,1.112a.762.762,0,0,1-.756.673h-4.758a.543.543,0,0,0-.536.467l-.314,2.3a.531.531,0,0,0,.128.429.542.542,0,0,0,.408.186h14.613a.544.544,0,0,0,.538-.476l.28-2.3a.541.541,0,0,0-.536-.606h-4.794a.761.761,0,0,1-.754-.85l.094-.811A.541.541,0,0,0,1283.021,761.63Zm16.468,2.085H1297.1a.54.54,0,0,0-.536.472l-.282,2.28a.541.541,0,0,0,.536.606h2.39a.54.54,0,0,0,.534-.472l.282-2.282a.538.538,0,0,0-.536-.6Zm-1.309,10.8h-2.448a.525.525,0,0,0-.519.453l-2.22,16.448a.527.527,0,0,0,.126.414.519.519,0,0,0,.391.179h13.6a.524.524,0,0,0,.431-.229l4.312-6.314a.523.523,0,0,0-.433-.817h-2.933a.521.521,0,0,0-.435.231l-2.288,3.419a.743.743,0,0,1-.617.331h-7.437a.745.745,0,0,1-.559-.256.731.731,0,0,1-.175-.587L1298.7,775.1a.522.522,0,0,0-.517-.593Zm94.866-13.059h-13.8a.761.761,0,0,0-.754.852l.229,1.859a.761.761,0,0,0,.752.668H1393.3a.759.759,0,0,0,.574-.262.767.767,0,0,0,.181-.6l-.256-1.859A.762.762,0,0,0,1393.045,761.451Zm3.56,7.125h-18.545a.5.5,0,0,0-.493.557l.3,2.451a.494.494,0,0,0,.491.437h10.419a.72.72,0,0,1,.708.613l2.579,17.522a.5.5,0,0,0,.1.228l2.784,3.684a.5.5,0,0,0,.4.2h5.671a.5.5,0,0,0,.491-.566l-.664-4.649a.5.5,0,0,0-.493-.425h-2.491a.5.5,0,0,0-.493.566l.241,1.676-2.026-1.974a.714.714,0,0,1-.209-.408l-2.333-15.64a.716.716,0,0,1,.707-.822h3.2a.494.494,0,0,0,.375-.169.5.5,0,0,0,.118-.393l-.329-2.451A.5.5,0,0,0,1396.6,768.576Zm-13.328,5.842h-2.333a.584.584,0,0,0-.442.2.578.578,0,0,0-.135.465l2.44,16.495a.588.588,0,0,0,.578.5h2.333a.585.585,0,0,0,.578-.668l-2.44-16.495A.582.582,0,0,0,1383.277,774.418Zm-109.383,9.025H1271.5a.54.54,0,0,0-.534.472l-.282,2.28a.541.541,0,0,0,.536.606h2.388a.54.54,0,0,0,.536-.472l.282-2.28a.541.541,0,0,0-.132-.423A.547.547,0,0,0,1273.894,783.443Zm104.222-5.825a.679.679,0,0,0,.162-.538l-.279-2.024a.677.677,0,0,0-.67-.585h-2.4a.9.9,0,0,1-.886-.768l-1.146-7.847a.9.9,0,0,1,.886-1.025h2.06a.678.678,0,0,0,.672-.768l-.277-2.026a.683.683,0,0,0-.672-.585h-8.685a.68.68,0,0,0-.672.76l.25,2.024a.677.677,0,0,0,.672.595h1.328a.9.9,0,0,1,.886.768l1.146,7.846a.9.9,0,0,1-.888,1.027h-.961a.674.674,0,0,0-.672.758l.249,2.026a.675.675,0,0,0,.672.595h1.469a.9.9,0,0,1,.886.768l1.311,8.982a.9.9,0,0,1-.886,1.027h-16.619a.914.914,0,0,1-.4-.1l-.8-.4a.9.9,0,0,1-.038-1.58l.478-.271a.681.681,0,0,0,.342-.589v-1.836a.9.9,0,0,1,.9-.9h4.745a.678.678,0,0,0,.677-.677v-2.026a.676.676,0,0,0-.677-.675h-5.641v-1.671h2.386a.675.675,0,0,0,.485-.205l3.262-3.351a.683.683,0,0,0,.192-.472v-6.44a.679.679,0,0,0-.677-.677h-4.752a.9.9,0,0,1-.9-.9v-.13a.9.9,0,0,1,.9-.9h4.747a.678.678,0,0,0,.677-.677v-2.024a.678.678,0,0,0-.677-.677h-22.72a.678.678,0,0,0-.677.677v2.024a.678.678,0,0,0,.677.677h4.613a.9.9,0,0,1,.9.9v.13a.9.9,0,0,1-.9.9h-4.664a.677.677,0,0,0-.675.677v6.474a.681.681,0,0,0,.2.478l3.319,3.317a.675.675,0,0,0,.478.2h2.241v1.671h-5.516a.676.676,0,0,0-.677.675v2.026a.678.678,0,0,0,.677.677h4.621a.9.9,0,0,1,.9.9v1.874a.676.676,0,0,0,.344.589l.48.273a.9.9,0,0,1-.038,1.58l-.813.41a.89.89,0,0,1-.4.1h-22.246v-1.641h8.822a.678.678,0,0,0,.677-.677v-1a.677.677,0,0,0-.677-.677h-8.822v-1.725h8.822a.678.678,0,0,0,.677-.677v-2.026a.677.677,0,0,0-.677-.675h-20.481a.678.678,0,0,0-.677.675v2.026a.679.679,0,0,0,.677.677h7.287a.9.9,0,0,1,.9.9v3.927a.9.9,0,0,1-.9.9h-3.736a.68.68,0,0,0-.559.3L1310.343,791a.676.676,0,0,0,.559,1.057h33a.687.687,0,0,0,.333-.087l4.141-2.342a.9.9,0,0,1,.882,0l4.222,2.389a.669.669,0,0,0,.333.089h21.755a1.2,1.2,0,0,0,.8-.352,1.027,1.027,0,0,0,.186-.826l-.07-.474h0l-1.689-11.575a.894.894,0,0,1,.886-1.025h1.919A.674.674,0,0,0,1378.116,777.618Zm-23.477-6.485a.9.9,0,0,1,.9-.9h1.057a.9.9,0,0,1,.9.9v1.244a.9.9,0,0,1-.254.627l-1.39,1.428h-1.2Zm-11.569,3.3h-1.082l-1.417-1.417a.891.891,0,0,1-.261-.634v-1.248a.9.9,0,0,1,.9-.9h.969a.9.9,0,0,1,.9.9Zm8.094,9.492a.89.89,0,0,1-.493.8l-1.373.694a.878.878,0,0,1-.4.1.894.894,0,0,1-.4-.1l-1.451-.734a.889.889,0,0,1-.493-.8v-.929h4.619Zm0-4.346h-4.619v-1.671h4.619Zm0-6.041a.9.9,0,0,1-.9.9h-2.826a.9.9,0,0,1-.9-.9v-2.4a.9.9,0,0,1,.9-.9h2.826a.9.9,0,0,1,.9.9Zm0-7.671a.9.9,0,0,1-.9.9h-2.826a.9.9,0,0,1-.9-.9v-.13a.9.9,0,0,1,.9-.9h2.826a.9.9,0,0,1,.9.9Z" transform="translate(-1269.811 -761.438)" fill="#1a1a1a"/>
    </g>
    <path id="Path_21" data-name="Path 21" d="M1284.725,758.819a.28.28,0,0,0-.29-.214.253.253,0,0,0-.13.043l0,0-.179.1c-.12.068-.312.173-.562.3a22.446,22.446,0,0,1-2.2.95c-.4.149-.945.344-1.547.517-.5.156-1.078.307-1.769.463-.6.139-1.232.246-1.925.359l-.282.036c-.572.07-1.163.143-1.757.179-.356.036-.711.047-1.012.051l-.382.011c-.211.007-.422.015-.67.015l-9.356.107-9.168-.105c-.247,0-.459-.007-.67-.013l-.38-.011c-.3-.006-.655-.017-1.02-.053-.587-.036-1.178-.109-1.75-.179l-.269-.034c-.734-.12-1.342-.224-1.936-.361-.688-.156-1.268-.307-1.774-.465-.6-.171-1.138-.367-1.541-.516a22.608,22.608,0,0,1-2.2-.95c-.25-.126-.442-.232-.559-.3l-.182-.107,0,0a.274.274,0,0,0-.13-.043.28.28,0,0,0-.29.214.3.3,0,0,0,.024.224h0a14.627,14.627,0,0,0,8.818,7.439.294.294,0,0,0,.243-.038,12.258,12.258,0,0,1,5.576-1.735l1.029-.011a5.317,5.317,0,0,1,3.2,1.268,11.28,11.28,0,0,0-5.99,4.122l-.032.034a8.045,8.045,0,0,1-2.523,2.072.3.3,0,0,0-.036.517q3.672,2.424,7.4,4.854,1.4.917,2.809,1.833l-.008,3.133c-3.3-2.137-6.54-4.265-9.448-6.186a.57.57,0,0,0-.88.493v2.431c3.281,2.164,6.786,4.459,10.32,6.732l-.026,8.079a.948.948,0,0,1-.935.912.9.9,0,0,1-.269-.047,8.181,8.181,0,0,1-5.565-6.741,1.016,1.016,0,0,1,.963-.967l.527-.006a.293.293,0,0,0,.275-.216.3.3,0,0,0-.124-.331q-2.216-1.428-4.408-2.856a.283.283,0,0,0-.323.009.339.339,0,0,0-.115.3c.094.723.519,4.465-.467,7.057a.3.3,0,0,0,.147.376,8.151,8.151,0,0,1,2.557,2.122.274.274,0,0,0,.054.051,11.6,11.6,0,0,0,9.332,4.613h0a11.555,11.555,0,0,0,9.479-4.8,8.216,8.216,0,0,1,2.449-1.992.3.3,0,0,0,.023-.523l-1.11-.67c-2.973-1.812-6.09-3.763-9.526-5.962l-.01-3.134c3.6,2.32,6.847,4.361,9.923,6.246a.572.572,0,0,0,.865-.5v-2.354c-3.31-2.041-6.843-4.28-10.8-6.843q-.011-4-.019-7.977a.948.948,0,0,1,.935-.911.838.838,0,0,1,.267.049,8.377,8.377,0,0,1,5.328,6.613.948.948,0,0,1-.885.956l-.513.009a.291.291,0,0,0-.273.218.3.3,0,0,0,.124.329q2.21,1.408,4.453,2.813l0,0a.3.3,0,0,0,.437-.271.34.34,0,0,0-.01-.045l0,0c-.009-.04-.818-4.2.075-7.035a.3.3,0,0,0-.152-.359,7.972,7.972,0,0,1-2.523-2.072l-.024-.028a11.306,11.306,0,0,0-5.708-4.053,5.365,5.365,0,0,1,3.289-1.364l1.033.009a12.346,12.346,0,0,1,5.594,1.737.3.3,0,0,0,.243.038,14.646,14.646,0,0,0,8.822-7.447A.306.306,0,0,0,1284.725,758.819Zm-23.414,17.127q-2.54-1.662-5.048-3.321a.681.681,0,0,1-.3-.576.761.761,0,0,1,.173-.453,8.3,8.3,0,0,1,4.039-2.758.8.8,0,0,1,.213-.04.948.948,0,0,1,.935.913Zm8.19,15.249a.721.721,0,0,1,.337.583.709.709,0,0,1-.143.419,8.514,8.514,0,0,1-4.312,2.869.806.806,0,0,1-.192.034.949.949,0,0,1-.935-.914l-.021-6.3C1266.074,789.057,1267.8,790.143,1269.5,791.195Zm14.621,1.067a.3.3,0,0,1-.141.232c-.043.026-1.118.687-3.974,4.054l-.008.008a6.326,6.326,0,0,1-.412.51,19.277,19.277,0,0,1-8.011,5.563c-5.306,1.8-6.258,2.367-6.717,2.636l-.1.058q-.923.618-1.854,1.236a.278.278,0,0,1-.148.043v0a.279.279,0,0,1-.149-.043q-.928-.618-1.853-1.236l-.1-.058c-.459-.269-1.411-.832-6.717-2.636a19.273,19.273,0,0,1-8.011-5.563,6.276,6.276,0,0,1-.412-.51l-.008-.008c-2.856-3.368-3.93-4.028-3.973-4.054a.306.306,0,0,1-.042-.486c1.381-1.217,2.021-5.029,2.183-7.089q.149-3.025.288-6.06h0c.028-.613.06-1.229.087-1.84v-.039c.1-3.881-1.729-5.353-1.938-5.509a.308.308,0,0,1-.109-.333c.008-.026.03-.039.043-.06a.284.284,0,0,1,.135-.113.46.46,0,0,1,.092-.034h0c2.124.03,5.208,2.013,5.821,2.421a.3.3,0,0,1,.135.233.3.3,0,0,1-.121.265,3.159,3.159,0,0,0-1.187,2.307,1.152,1.152,0,0,1-.015.135c-.008.205-.015.406-.023.611a7.57,7.57,0,0,1-.03.826c-.149,3.825-.312,7.567-.457,10.813-.038,1.317.348,4.809,1.744,6.574a14.574,14.574,0,0,0,6.773,4.735c.694.235,1.332.459,1.945.677a19.406,19.406,0,0,0,11.8,0c.614-.218,1.251-.442,1.946-.677a14.576,14.576,0,0,0,6.773-4.735c1.4-1.765,1.782-5.257,1.744-6.574-.145-3.245-.309-6.988-.457-10.813a7.6,7.6,0,0,1-.03-.826l-.022-.611a1.208,1.208,0,0,1-.015-.135,3.158,3.158,0,0,0-1.187-2.307.3.3,0,0,1-.12-.265.3.3,0,0,1,.135-.233c.613-.408,3.7-2.391,5.821-2.421h0a.447.447,0,0,1,.092.034.282.282,0,0,1,.135.113c.013.021.036.034.043.06a.307.307,0,0,1-.109.333c-.209.156-2.035,1.627-1.937,5.509v.039c.026.612.058,1.227.086,1.84h0q.141,3.034.288,6.06c.162,2.06.8,5.872,2.182,7.089A.3.3,0,0,1,1284.121,792.261Z" transform="translate(-1200.777 -718.604)" fill="#1a1a1a"/>
  </g>
</svg>
