<svg xmlns="http://www.w3.org/2000/svg" width="1266" height="65" viewBox="0 0 1266 65">
  <g id="pages-wrapper-v-pattern" transform="translate(-327 -479)">
    <g id="Group_3482" data-name="Group 3482" transform="translate(420 504.913)">
      <g id="Rectangle_1888" data-name="Rectangle 1888" transform="translate(927.032 11.175) rotate(-90)" fill="#fff" stroke="#bfbfbf" stroke-width="1">
        <rect width="11.087" height="60" rx="5.543" stroke="none"/>
        <rect x="0.5" y="0.5" width="10.087" height="59" rx="5.043" fill="none"/>
      </g>
      <g id="Rectangle_1889" data-name="Rectangle 1889" transform="translate(1030.032 11.175) rotate(-90)" fill="#fff" stroke="#bfbfbf" stroke-width="1">
        <rect width="11.087" height="60" rx="5.543" stroke="none"/>
        <rect x="0.5" y="0.5" width="10.087" height="59" rx="5.043" fill="none"/>
      </g>
      <g id="Rectangle_1880" data-name="Rectangle 1880" transform="translate(720.623 11.087) rotate(-90)" fill="#fff" stroke="#bfbfbf" stroke-width="1">
        <rect width="11.087" height="60" rx="5.543" stroke="none"/>
        <rect x="0.5" y="0.5" width="10.087" height="59" rx="5.043" fill="none"/>
      </g>
      <g id="Rectangle_1886" data-name="Rectangle 1886" transform="translate(309.409 11.087) rotate(-90)" fill="#fff" stroke="#bfbfbf" stroke-width="1">
        <rect width="11.087" height="60" rx="5.543" stroke="none"/>
        <rect x="0.5" y="0.5" width="10.087" height="59" rx="5.043" fill="none"/>
      </g>
      <g id="Rectangle_1882" data-name="Rectangle 1882" transform="translate(617.82 11.087) rotate(-90)" fill="#fff" stroke="#bfbfbf" stroke-width="1">
        <rect width="11.087" height="60" rx="5.543" stroke="none"/>
        <rect x="0.5" y="0.5" width="10.087" height="59" rx="5.043" fill="none"/>
      </g>
      <g id="Rectangle_1878" data-name="Rectangle 1878" transform="translate(824.425 11.087) rotate(-90)" fill="#fff" stroke="#bfbfbf" stroke-width="1">
        <rect width="11.087" height="60" rx="5.543" stroke="none"/>
        <rect x="0.5" y="0.5" width="10.087" height="59" rx="5.043" fill="none"/>
      </g>
      <g id="Rectangle_1887" data-name="Rectangle 1887" transform="translate(412.213 11.087) rotate(-90)" fill="#fff" stroke="#bfbfbf" stroke-width="1">
        <rect width="11.087" height="60" rx="5.543" stroke="none"/>
        <rect x="0.5" y="0.5" width="10.087" height="59" rx="5.043" fill="none"/>
      </g>
      <g id="Rectangle_1885" data-name="Rectangle 1885" transform="translate(205.607 11.087) rotate(-90)" fill="#fff" stroke="#bfbfbf" stroke-width="1">
        <rect width="11.087" height="60" rx="5.543" stroke="none"/>
        <rect x="0.5" y="0.5" width="10.087" height="59" rx="5.043" fill="none"/>
      </g>
      <g id="Rectangle_1881" data-name="Rectangle 1881" transform="translate(515.016 11.087) rotate(-90)" fill="#fff" stroke="#bfbfbf" stroke-width="1">
        <rect width="11.087" height="60" rx="5.543" stroke="none"/>
        <rect x="0.5" y="0.5" width="10.087" height="59" rx="5.043" fill="none"/>
      </g>
      <g id="Rectangle_1883" data-name="Rectangle 1883" transform="translate(103 11.175) rotate(-90)" fill="#fff" stroke="#bfbfbf" stroke-width="1">
        <rect width="11.087" height="60" rx="5.543" stroke="none"/>
        <rect x="0.5" y="0.5" width="10.087" height="59" rx="5.043" fill="none"/>
      </g>
      <g id="Rectangle_1890" data-name="Rectangle 1890" transform="translate(0 11.175) rotate(-90)" fill="#fff" stroke="#bfbfbf" stroke-width="1">
        <rect width="11.087" height="60" rx="5.543" stroke="none"/>
        <rect x="0.5" y="0.5" width="10.087" height="59" rx="5.043" fill="none"/>
      </g>
    </g>
    <path id="Path_9651" data-name="Path 9651" d="M31.48,64C14.094,64,0,49.673,0,32S14.094,0,31.48,0" transform="translate(1561.52 479)" fill="#fff"/>
    <path id="Path_9652" data-name="Path 9652" d="M31.48,63.5C14.37,63.5.5,49.4.5,32S14.37.5,31.48.5" transform="translate(1561.52 479)" fill="none" stroke="#bfbfbf" stroke-miterlimit="10" stroke-width="1"/>
    <path id="Path_9651-2" data-name="Path 9651" d="M0,64c17.386,0,31.48-14.327,31.48-32S17.386,0,0,0" transform="translate(327 480)" fill="#fff"/>
    <path id="Path_9652-2" data-name="Path 9652" d="M.5,63.5c17.11,0,30.98-14.1,30.98-31.5S17.61.5.5.5" transform="translate(326.5 480)" fill="none" stroke="#bfbfbf" stroke-miterlimit="10" stroke-width="1"/>
  </g>
</svg>
