<?xml version="1.0" encoding="utf-8"?>
<!-- Generator: Adobe Illustrator 27.6.1, SVG Export Plug-In . SVG Version: 6.00 Build 0)  -->
<svg version="1.1" id="圖層_1" xmlns="http://www.w3.org/2000/svg" xmlns:xlink="http://www.w3.org/1999/xlink" x="0px" y="0px"
	 viewBox="0 0 26 86" enable-background="new 0 0 26 86" xml:space="preserve">
<path id="arrow-1" fill="#959595" d="M20.4,54.6c0,0.2-0.1,0.3-0.2,0.4l-6.8,6.8c-0.2,0.2-0.6,0.2-0.8,0L5.8,55
	c-0.2-0.2-0.2-0.6,0-0.8c0.2-0.2,0.6-0.2,0.8,0c0,0,0,0,0,0l6.4,6.4l6.4-6.4c0.2-0.2,0.6-0.2,0.8,0C20.4,54.3,20.4,54.4,20.4,54.6"
	/>
<path id="arrow-2" fill="#959595" d="M20.4,66.6c0,0.2-0.1,0.3-0.2,0.4l-6.8,6.8c-0.2,0.2-0.6,0.2-0.8,0L5.8,67
	c-0.2-0.2-0.2-0.6,0-0.8c0.2-0.2,0.6-0.2,0.8,0c0,0,0,0,0,0l6.4,6.4l6.4-6.4c0.2-0.2,0.6-0.2,0.8,0C20.4,66.3,20.4,66.4,20.4,66.6"
	/>
<path id="arrow-3" fill="#959595" d="M20.4,78.6c0,0.2-0.1,0.3-0.2,0.4l-6.8,6.8c-0.2,0.2-0.6,0.2-0.8,0L5.8,79
	c-0.2-0.2-0.2-0.6,0-0.8c0.2-0.2,0.6-0.2,0.8,0c0,0,0,0,0,0l6.4,6.4l6.4-6.4c0.2-0.2,0.6-0.2,0.8,0C20.4,78.3,20.4,78.4,20.4,78.6"
	/>
<path id="mouse-block_00000098188625961901907610000017446285066104766131_" fill="#FFD100" d="M13,0L13,0c7.2,0,13,5.8,13,13v22
	c0,7.2-5.8,13-13,13l0,0C5.8,48,0,42.2,0,35V13C0,5.8,5.8,0,13,0z"/>
<path id="mouse-cycle_00000036223751546567978530000018173610532603448210_" fill="#FFFFFF" d="M13,7L13,7c1.1,0,2,0.9,2,2v12
	c0,1.1-0.9,2-2,2l0,0c-1.1,0-2-0.9-2-2V9C11,7.9,11.9,7,13,7z"/>
</svg>
