<svg id="Group_3557" data-name="Group 3557" xmlns="http://www.w3.org/2000/svg" xmlns:xlink="http://www.w3.org/1999/xlink" width="750" height="395.877" viewBox="0 0 750 395.877">
  <defs>
    <clipPath id="clip-path">
      <rect id="Rectangle_1943" data-name="Rectangle 1943" width="750" height="395.877" fill="none"/>
    </clipPath>
  </defs>
  <g id="Group_3556" data-name="Group 3556" clip-path="url(#clip-path)">
    <path id="Path_9669" data-name="Path 9669" d="M704.809.364H628.628A21.448,21.448,0,0,1,607.18,21.813V39.385a3.026,3.026,0,0,1,3.026,3.027V68.138a3.026,3.026,0,0,1-3.026,3.026V86.3a3.026,3.026,0,0,1,3.026,3.027v25.725a3.026,3.026,0,0,1-3.026,3.027v15.133a3.026,3.026,0,0,1,3.026,3.027v25.725a3.026,3.026,0,0,1-3.026,3.027v15.133a3.026,3.026,0,0,1,3.026,3.026v25.726a3.026,3.026,0,0,1-3.026,3.027v15.132a3.027,3.027,0,0,1,3.026,3.027v25.726a3.026,3.026,0,0,1-3.026,3.027v15.132a3.026,3.026,0,0,1,3.026,3.027V302.7a3.027,3.027,0,0,1-3.026,3.027v15.132a3.026,3.026,0,0,1,3.026,3.027v25.726a3.026,3.026,0,0,1-3.026,3.026v15.133a3.026,3.026,0,0,1,3.026,3.027V349.608a3.026,3.026,0,0,1-3.026,3.026v21.4a21.448,21.448,0,0,1,21.448,21.448h76.181a21.5,21.5,0,0,0,21.5-21.5V21.862a21.5,21.5,0,0,0-21.5-21.5" transform="translate(23.693 0.014)" fill="#141414"/>
    <rect id="Rectangle_1927" data-name="Rectangle 1927" width="49.119" height="3.492" transform="translate(685.971 298.924)" fill="#fff"/>
    <rect id="Rectangle_1928" data-name="Rectangle 1928" width="49.119" height="13.968" transform="translate(685.971 271.318)" fill="#fff"/>
    <rect id="Rectangle_1929" data-name="Rectangle 1929" width="49.119" height="17.459" transform="translate(685.971 247.205)" fill="#fff"/>
    <rect id="Rectangle_1930" data-name="Rectangle 1930" width="49.119" height="3.492" transform="translate(685.971 289.564)" fill="#fff"/>
    <rect id="Rectangle_1931" data-name="Rectangle 1931" width="49.119" height="3.492" transform="translate(685.971 231.822)" fill="#fff"/>
    <rect id="Rectangle_1932" data-name="Rectangle 1932" width="49.119" height="10.475" transform="translate(685.971 217.145)" fill="#fff"/>
    <rect id="Rectangle_1933" data-name="Rectangle 1933" width="49.119" height="3.492" transform="translate(685.971 209.452)" fill="#fff"/>
    <rect id="Rectangle_1934" data-name="Rectangle 1934" width="49.119" height="3.492" transform="translate(685.971 198.271)" fill="#fff"/>
    <rect id="Rectangle_1935" data-name="Rectangle 1935" width="49.119" height="13.968" transform="translate(685.971 170.663)" fill="#fff"/>
    <rect id="Rectangle_1936" data-name="Rectangle 1936" width="49.119" height="3.492" transform="translate(685.971 153.534)" fill="#fff"/>
    <rect id="Rectangle_1937" data-name="Rectangle 1937" width="49.119" height="3.492" transform="translate(685.971 142.349)" fill="#fff"/>
    <rect id="Rectangle_1938" data-name="Rectangle 1938" width="49.119" height="3.492" transform="translate(685.971 159.372)" fill="#fff"/>
    <rect id="Rectangle_1939" data-name="Rectangle 1939" width="49.119" height="10.476" transform="translate(685.971 127.676)" fill="#fff"/>
    <rect id="Rectangle_1940" data-name="Rectangle 1940" width="49.119" height="3.491" transform="translate(685.971 119.983)" fill="#fff"/>
    <rect id="Rectangle_1941" data-name="Rectangle 1941" width="49.119" height="10.476" transform="translate(685.971 105.309)" fill="#fff"/>
    <rect id="Rectangle_1942" data-name="Rectangle 1942" width="49.119" height="3.492" transform="translate(685.971 97.616)" fill="#fff"/>
    <path id="Path_9670" data-name="Path 9670" d="M650.395,290.8l-.869-1.219a2.553,2.553,0,0,0,1.514-2.344c0-1.459-.831-2.179-2.88-2.179h-9.4v-1.7h9.563c2.326,0,4.209,1.071,4.209,3.711a3.992,3.992,0,0,1-2.14,3.729" transform="translate(24.925 11.057)" fill="#fff"/>
    <path id="Path_9671" data-name="Path 9671" d="M646.7,280.267h-7.938V278.55h7.993c3.268,0,4.283-1.384,4.283-3.138,0-1.81-1.015-3.231-4.283-3.231h-7.993v-1.643H646.7c4.357,0,5.834,2.105,5.834,4.874,0,2.75-1.477,4.855-5.834,4.855" transform="translate(24.926 10.557)" fill="#fff"/>
    <path id="Path_9672" data-name="Path 9672" d="M650.533,268.529l-1.163-1.015a5.318,5.318,0,0,0,1.679-3.748c0-1.773-.886-2.844-2.215-2.844-1.385,0-1.828.979-2.4,2.253l-.849,1.958c-.535,1.255-1.5,2.75-3.47,2.75-2.086,0-3.6-1.809-3.6-4.264a5.549,5.549,0,0,1,1.679-3.988l1.09.9a4.382,4.382,0,0,0-1.274,3.083c0,1.533.775,2.529,1.994,2.529,1.311,0,1.809-1.181,2.253-2.234l.83-1.939c.684-1.569,1.606-2.787,3.619-2.787,2.141,0,3.839,1.772,3.839,4.6a6.469,6.469,0,0,1-2.012,4.744" transform="translate(24.916 10.114)" fill="#fff"/>
    <path id="Path_9673" data-name="Path 9673" d="M640.2,254.521v4.1h-1.439v-9.913H640.2v4.1H652.3v1.717Z" transform="translate(24.926 9.705)" fill="#fff"/>
    <path id="Path_9674" data-name="Path 9674" d="M638.764,244.307v-1.772l7.366-1.422c1.459-.259,2.917-.534,4.375-.793v-.075c-1.459-.314-2.917-.646-4.375-.978l-7.366-1.865v-1.55l7.366-1.9c1.44-.333,2.9-.645,4.375-.959V232.9q-2.215-.388-4.375-.775l-7.366-1.421v-1.644l13.531,2.806v2.049l-8.159,2.049c-1.07.24-2.049.444-3.083.665v.074c1.034.221,2.013.461,3.083.683L652.3,239.4v2.031Z" transform="translate(24.926 8.938)" fill="#fff"/>
    <path id="Path_9675" data-name="Path 9675" d="M648.161,220.953V225.9l4.135,1.31v1.735l-13.532-4.6v-1.9l13.532-4.6v1.81Zm-1.366.424-2.068.646c-1.533.5-3.009.923-4.578,1.366v.074c1.587.425,3.045.868,4.578,1.348l2.068.665Z" transform="translate(24.926 8.501)" fill="#fff"/>
    <path id="Path_9676" data-name="Path 9676" d="M638.764,216.385v-1.772l8.528-4.929,2.788-1.44v-.091c-1.366.091-2.879.22-4.282.22h-7.034v-1.624H652.3V208.5l-8.547,4.929-2.788,1.459v.074c1.366-.074,2.806-.2,4.228-.2H652.3v1.624Z" transform="translate(24.926 8.068)" fill="#fff"/>
    <path id="Path_9677" data-name="Path 9677" d="M638.764,203.56v-1.773l8.528-4.929,2.788-1.44v-.091c-1.366.091-2.879.22-4.282.22h-7.034v-1.624H652.3v1.754l-8.547,4.929-2.788,1.459v.074c1.366-.074,2.806-.2,4.228-.2H652.3v1.625Z" transform="translate(24.926 7.567)" fill="#fff"/>
    <path id="Path_9678" data-name="Path 9678" d="M648.161,184.52v4.948l4.135,1.31v1.735l-13.532-4.6v-1.9l13.532-4.6v1.81Zm-1.366.424-2.068.646c-1.533.5-3.009.923-4.578,1.366v.074c1.587.425,3.045.868,4.578,1.348l2.068.665Z" transform="translate(24.926 7.079)" fill="#fff"/>
    <path id="Path_9679" data-name="Path 9679" d="M638.764,175.976v-1.717h5.668v-6.314h-5.668v-1.7H652.3v1.7h-6.387v6.314H652.3v1.717Z" transform="translate(24.926 6.487)" fill="#fff"/>
    <path id="Path_9680" data-name="Path 9680" d="M648.161,156.826v4.948l4.135,1.31v1.735l-13.532-4.6v-1.9l13.532-4.6v1.81Zm-1.366.424-2.068.646c-1.533.5-3.009.923-4.578,1.366v.074c1.587.425,3.045.868,4.578,1.348l2.068.665Z" transform="translate(24.926 5.998)" fill="#fff"/>
    <path id="Path_9681" data-name="Path 9681" d="M638.764,154.32v-1.79l7.328-2.2c1.589-.48,2.88-.794,4.469-1.31v-.074c-1.589-.5-2.88-.831-4.469-1.311l-7.328-2.178v-1.736l13.531,4.3V150Z" transform="translate(24.926 5.608)" fill="#fff"/>
    <path id="Path_9682" data-name="Path 9682" d="M638.764,142.25v-7.809H640.2v6.092h4.247V135.4h1.459v5.132h4.929v-6.3H652.3v8.013Z" transform="translate(24.926 5.238)" fill="#fff"/>
    <path id="Path_9683" data-name="Path 9683" d="M638.764,127.818v-7.809H640.2V126.1h4.579v-5.169h1.44V126.1H652.3v1.717Z" transform="translate(24.926 4.683)" fill="#fff"/>
    <path id="Path_9684" data-name="Path 9684" d="M646.7,118.137h-7.938V116.42h7.993c3.268,0,4.283-1.384,4.283-3.138,0-1.81-1.015-3.231-4.283-3.231h-7.993v-1.643H646.7c4.357,0,5.834,2.105,5.834,4.874,0,2.75-1.477,4.855-5.834,4.855" transform="translate(24.926 4.23)" fill="#fff"/>
    <path id="Path_9685" data-name="Path 9685" d="M638.764,105.273V103.5l8.528-4.929,2.788-1.44V97.04c-1.366.091-2.879.22-4.282.22h-7.034V95.636H652.3V97.39l-8.547,4.929-2.788,1.459v.074c1.366-.074,2.806-.2,4.228-.2H652.3v1.625Z" transform="translate(24.926 3.732)" fill="#fff"/>
    <path id="Path_9686" data-name="Path 9686" d="M630.858,367.767V352.635a3.027,3.027,0,0,1-3.027-3.027V323.882a3.026,3.026,0,0,1,3.027-3.027V305.723a3.027,3.027,0,0,1-3.027-3.027V276.97a3.027,3.027,0,0,1,3.027-3.027V258.811a3.026,3.026,0,0,1-3.027-3.027V230.058a3.026,3.026,0,0,1,3.027-3.026V211.9a3.026,3.026,0,0,1-3.027-3.027V183.148a3.026,3.026,0,0,1,3.027-3.027V164.988a3.026,3.026,0,0,1-3.027-3.027V136.236a3.026,3.026,0,0,1,3.027-3.027V118.076a3.026,3.026,0,0,1-3.027-3.026V89.324a3.026,3.026,0,0,1,3.027-3.027V71.165a3.027,3.027,0,0,1-3.027-3.027V42.412a3.026,3.026,0,0,1,3.027-3.027V21.813A21.448,21.448,0,0,1,609.409.364H21.811A21.448,21.448,0,0,0,.364,21.813V374.036a21.448,21.448,0,0,0,21.447,21.448h587.6a21.448,21.448,0,0,1,21.449-21.448v-21.4" transform="translate(0.014 0.014)" fill="#fff"/>
    <path id="Path_9687" data-name="Path 9687" d="M630.858,367.767V352.635a3.027,3.027,0,0,1-3.027-3.027V323.882a3.026,3.026,0,0,1,3.027-3.027V305.723a3.027,3.027,0,0,1-3.027-3.027V276.97a3.027,3.027,0,0,1,3.027-3.027V258.811a3.026,3.026,0,0,1-3.027-3.027V230.058a3.026,3.026,0,0,1,3.027-3.026V211.9a3.026,3.026,0,0,1-3.027-3.027V183.148a3.026,3.026,0,0,1,3.027-3.027V164.988a3.026,3.026,0,0,1-3.027-3.027V136.236a3.026,3.026,0,0,1,3.027-3.027V118.076a3.026,3.026,0,0,1-3.027-3.026V89.324a3.026,3.026,0,0,1,3.027-3.027V71.165a3.027,3.027,0,0,1-3.027-3.027V42.412a3.026,3.026,0,0,1,3.027-3.027V21.813A21.448,21.448,0,0,1,609.409.364H21.811A21.448,21.448,0,0,0,.364,21.813V374.036a21.448,21.448,0,0,0,21.447,21.448h587.6a21.448,21.448,0,0,1,21.449-21.448v-21.4" transform="translate(0.014 0.014)" fill="none" stroke="#5d5d5d" stroke-miterlimit="10" stroke-width="0.728"/>
  </g>
</svg>
